<svg width="1424" height="96" viewBox="0 0 1424 96" fill="none" xmlns="http://www.w3.org/2000/svg">
<mask id="path-1-inside-1_590_1210" fill="white">
<path d="M0 0.884766L94.8857 0.884766L94.8857 95.7705L0 95.7705L0 0.884766Z"/>
</mask>
<path d="M94.8857 0.884766L95.5834 0.884766V0.187077L94.8857 0.187077V0.884766ZM94.8857 95.7705V96.4682H95.5834V95.7705H94.8857ZM0 1.58245L94.8857 1.58245V0.187077L0 0.187077L0 1.58245ZM94.188 0.884766L94.188 95.7705H95.5834L95.5834 0.884766L94.188 0.884766ZM94.8857 95.0728L0 95.0728L0 96.4682L94.8857 96.4682V95.0728Z" fill="url(#paint0_linear_590_1210)" mask="url(#path-1-inside-1_590_1210)"/>
<mask id="path-3-inside-2_590_1210" fill="white">
<path d="M94.8857 0.884766L189.771 0.884766V95.7705L94.8857 95.7705L94.8857 0.884766Z"/>
</mask>
<path d="M94.8857 0.884766V0.187077L94.1881 0.187077V0.884766L94.8857 0.884766ZM189.771 0.884766L190.469 0.884766V0.187077L189.771 0.187077V0.884766ZM189.771 95.7705V96.4682H190.469V95.7705H189.771ZM94.8857 95.7705H94.1881V96.4682H94.8857V95.7705ZM94.8857 1.58245L189.771 1.58245V0.187077L94.8857 0.187077V1.58245ZM189.074 0.884766V95.7705H190.469V0.884766L189.074 0.884766ZM189.771 95.0728L94.8857 95.0728V96.4682L189.771 96.4682V95.0728ZM95.5834 95.7705L95.5834 0.884766L94.1881 0.884766L94.1881 95.7705H95.5834Z" fill="#5C6F90" mask="url(#path-3-inside-2_590_1210)"/>
<mask id="path-5-inside-3_590_1210" fill="white">
<path d="M189.771 0.884766L284.657 0.884766V95.7705L189.771 95.7705L189.771 0.884766Z"/>
</mask>
<path d="M189.771 0.884766V0.187077L189.074 0.187077V0.884766L189.771 0.884766ZM284.657 0.884766L285.355 0.884766V0.187077L284.657 0.187077V0.884766ZM284.657 95.7705V96.4682H285.355V95.7705H284.657ZM189.771 95.7705H189.074V96.4682H189.771V95.7705ZM189.771 1.58245L284.657 1.58245V0.187077L189.771 0.187077V1.58245ZM283.96 0.884766V95.7705H285.355V0.884766L283.96 0.884766ZM284.657 95.0728L189.771 95.0728V96.4682L284.657 96.4682V95.0728ZM190.469 95.7705L190.469 0.884766L189.074 0.884766L189.074 95.7705H190.469Z" fill="#5C6F90" mask="url(#path-5-inside-3_590_1210)"/>
<mask id="path-7-inside-4_590_1210" fill="white">
<path d="M284.657 0.884766L379.543 0.884766V95.7705L284.657 95.7705V0.884766Z"/>
</mask>
<path d="M284.657 0.884766V0.187077L283.96 0.187077V0.884766L284.657 0.884766ZM379.543 0.884766L380.241 0.884766V0.187077L379.543 0.187077V0.884766ZM379.543 95.7705V96.4682H380.241V95.7705H379.543ZM284.657 95.7705H283.96V96.4682H284.657V95.7705ZM284.657 1.58245L379.543 1.58245V0.187077L284.657 0.187077V1.58245ZM378.845 0.884766V95.7705H380.241V0.884766L378.845 0.884766ZM379.543 95.0728L284.657 95.0728V96.4682L379.543 96.4682V95.0728ZM285.355 95.7705V0.884766L283.96 0.884766V95.7705H285.355Z" fill="#5C6F90" mask="url(#path-7-inside-4_590_1210)"/>
<mask id="path-9-inside-5_590_1210" fill="white">
<path d="M379.543 0.884766L474.429 0.884766V95.7705L379.543 95.7705V0.884766Z"/>
</mask>
<path d="M379.543 0.884766V0.187077L378.845 0.187077V0.884766L379.543 0.884766ZM474.429 0.884766L475.126 0.884766V0.187077L474.429 0.187077V0.884766ZM474.429 95.7705V96.4682H475.126V95.7705H474.429ZM379.543 95.7705H378.845V96.4682H379.543V95.7705ZM379.543 1.58245L474.429 1.58245V0.187077L379.543 0.187077V1.58245ZM473.731 0.884766V95.7705H475.126V0.884766L473.731 0.884766ZM474.429 95.0728L379.543 95.0728V96.4682L474.429 96.4682V95.0728ZM380.241 95.7705V0.884766L378.845 0.884766V95.7705H380.241Z" fill="#5C6F90" mask="url(#path-9-inside-5_590_1210)"/>
<mask id="path-11-inside-6_590_1210" fill="white">
<path d="M474.429 0.884766L569.314 0.884766V95.7705L474.429 95.7705V0.884766Z"/>
</mask>
<path d="M474.429 0.884766V0.187077L473.731 0.187077V0.884766L474.429 0.884766ZM569.314 0.884766L570.012 0.884766V0.187077L569.314 0.187077V0.884766ZM569.314 95.7705V96.4682H570.012V95.7705H569.314ZM474.429 95.7705H473.731V96.4682H474.429V95.7705ZM474.429 1.58245L569.314 1.58245V0.187077L474.429 0.187077V1.58245ZM568.617 0.884766V95.7705H570.012V0.884766L568.617 0.884766ZM569.314 95.0728L474.429 95.0728V96.4682L569.314 96.4682V95.0728ZM475.126 95.7705V0.884766L473.731 0.884766V95.7705H475.126Z" fill="#5C6F90" mask="url(#path-11-inside-6_590_1210)"/>
<mask id="path-13-inside-7_590_1210" fill="white">
<path d="M569.314 0.884766L664.2 0.884766V95.7705L569.314 95.7705V0.884766Z"/>
</mask>
<path d="M569.314 0.884766V0.187077L568.617 0.187077V0.884766L569.314 0.884766ZM664.2 0.884766L664.898 0.884766V0.187077L664.2 0.187077V0.884766ZM664.2 95.7705V96.4682H664.898V95.7705H664.2ZM569.314 95.7705H568.617V96.4682H569.314V95.7705ZM569.314 1.58245L664.2 1.58245V0.187077L569.314 0.187077V1.58245ZM663.502 0.884766V95.7705H664.898V0.884766L663.502 0.884766ZM664.2 95.0728L569.314 95.0728V96.4682L664.2 96.4682V95.0728ZM570.012 95.7705V0.884766L568.617 0.884766V95.7705H570.012Z" fill="#5C6F90" mask="url(#path-13-inside-7_590_1210)"/>
<mask id="path-15-inside-8_590_1210" fill="white">
<path d="M664.2 0.884766L759.086 0.884766V95.7705L664.2 95.7705V0.884766Z"/>
</mask>
<path d="M664.2 0.884766V0.187077L663.503 0.187077V0.884766L664.2 0.884766ZM759.086 0.884766L759.784 0.884766V0.187077L759.086 0.187077V0.884766ZM759.086 95.7705V96.4682H759.784V95.7705H759.086ZM664.2 95.7705H663.503V96.4682H664.2V95.7705ZM664.2 1.58245L759.086 1.58245V0.187077L664.2 0.187077V1.58245ZM758.388 0.884766V95.7705H759.784V0.884766L758.388 0.884766ZM759.086 95.0728L664.2 95.0728V96.4682L759.086 96.4682V95.0728ZM664.898 95.7705V0.884766L663.503 0.884766V95.7705H664.898Z" fill="#5C6F90" mask="url(#path-15-inside-8_590_1210)"/>
<mask id="path-17-inside-9_590_1210" fill="white">
<path d="M759.086 0.884766L853.972 0.884766V95.7705L759.086 95.7705V0.884766Z"/>
</mask>
<path d="M759.086 0.884766V0.187077L758.388 0.187077V0.884766L759.086 0.884766ZM853.972 0.884766L854.669 0.884766V0.187077L853.972 0.187077V0.884766ZM853.972 95.7705V96.4682H854.669V95.7705H853.972ZM759.086 95.7705H758.388V96.4682H759.086V95.7705ZM759.086 1.58245L853.972 1.58245V0.187077L759.086 0.187077V1.58245ZM853.274 0.884766V95.7705H854.669V0.884766L853.274 0.884766ZM853.972 95.0728L759.086 95.0728V96.4682L853.972 96.4682V95.0728ZM759.784 95.7705V0.884766L758.388 0.884766V95.7705H759.784Z" fill="#5C6F90" mask="url(#path-17-inside-9_590_1210)"/>
<mask id="path-19-inside-10_590_1210" fill="white">
<path d="M853.972 0.884766L948.857 0.884766V95.7705L853.972 95.7705V0.884766Z"/>
</mask>
<path d="M853.972 0.884766V0.187077L853.274 0.187077V0.884766L853.972 0.884766ZM948.857 0.884766L949.555 0.884766V0.187077L948.857 0.187077V0.884766ZM948.857 95.7705V96.4682H949.555V95.7705H948.857ZM853.972 95.7705H853.274V96.4682H853.972V95.7705ZM853.972 1.58245L948.857 1.58245V0.187077L853.972 0.187077V1.58245ZM948.16 0.884766V95.7705H949.555V0.884766L948.16 0.884766ZM948.857 95.0728L853.972 95.0728V96.4682L948.857 96.4682V95.0728ZM854.669 95.7705V0.884766L853.274 0.884766V95.7705H854.669Z" fill="#5C6F90" mask="url(#path-19-inside-10_590_1210)"/>
<mask id="path-21-inside-11_590_1210" fill="white">
<path d="M948.857 0.884766L1043.74 0.884766V95.7705L948.857 95.7705V0.884766Z"/>
</mask>
<path d="M948.857 0.884766V0.187077L948.16 0.187077V0.884766L948.857 0.884766ZM1043.74 0.884766L1044.44 0.884766V0.187077L1043.74 0.187077V0.884766ZM1043.74 95.7705V96.4682H1044.44V95.7705H1043.74ZM948.857 95.7705H948.16V96.4682H948.857V95.7705ZM948.857 1.58245L1043.74 1.58245V0.187077L948.857 0.187077V1.58245ZM1043.05 0.884766V95.7705H1044.44V0.884766L1043.05 0.884766ZM1043.74 95.0728L948.857 95.0728V96.4682L1043.74 96.4682V95.0728ZM949.555 95.7705V0.884766L948.16 0.884766V95.7705H949.555Z" fill="#5C6F90" mask="url(#path-21-inside-11_590_1210)"/>
<mask id="path-23-inside-12_590_1210" fill="white">
<path d="M1043.74 0.884766L1138.63 0.884766V95.7705L1043.74 95.7705V0.884766Z"/>
</mask>
<path d="M1043.74 0.884766V0.187077L1043.05 0.187077V0.884766L1043.74 0.884766ZM1138.63 0.884766L1139.33 0.884766V0.187077L1138.63 0.187077V0.884766ZM1138.63 95.7705V96.4682H1139.33V95.7705H1138.63ZM1043.74 95.7705H1043.05V96.4682H1043.74V95.7705ZM1043.74 1.58245L1138.63 1.58245V0.187077L1043.74 0.187077V1.58245ZM1137.93 0.884766V95.7705H1139.33V0.884766L1137.93 0.884766ZM1138.63 95.0728L1043.74 95.0728V96.4682L1138.63 96.4682V95.0728ZM1044.44 95.7705V0.884766L1043.05 0.884766V95.7705H1044.44Z" fill="#5C6F90" mask="url(#path-23-inside-12_590_1210)"/>
<mask id="path-25-inside-13_590_1210" fill="white">
<path d="M1138.63 0.884766L1233.51 0.884766V95.7705L1138.63 95.7705V0.884766Z"/>
</mask>
<path d="M1138.63 0.884766V0.187077L1137.93 0.187077V0.884766L1138.63 0.884766ZM1233.51 0.884766L1234.21 0.884766V0.187077L1233.51 0.187077V0.884766ZM1233.51 95.7705V96.4682H1234.21V95.7705H1233.51ZM1138.63 95.7705H1137.93V96.4682H1138.63V95.7705ZM1138.63 1.58245L1233.51 1.58245V0.187077L1138.63 0.187077V1.58245ZM1232.82 0.884766V95.7705H1234.21V0.884766L1232.82 0.884766ZM1233.51 95.0728L1138.63 95.0728V96.4682L1233.51 96.4682V95.0728ZM1139.33 95.7705V0.884766L1137.93 0.884766V95.7705H1139.33Z" fill="#5C6F90" mask="url(#path-25-inside-13_590_1210)"/>
<mask id="path-27-inside-14_590_1210" fill="white">
<path d="M1233.51 0.884766L1328.4 0.884766V95.7705L1233.51 95.7705V0.884766Z"/>
</mask>
<path d="M1233.51 0.884766V0.187077L1232.82 0.187077V0.884766L1233.51 0.884766ZM1328.4 0.884766L1329.1 0.884766V0.187077L1328.4 0.187077V0.884766ZM1328.4 95.7705V96.4682H1329.1V95.7705H1328.4ZM1233.51 95.7705H1232.82V96.4682H1233.51V95.7705ZM1233.51 1.58245L1328.4 1.58245V0.187077L1233.51 0.187077V1.58245ZM1327.7 0.884766V95.7705H1329.1V0.884766L1327.7 0.884766ZM1328.4 95.0728L1233.51 95.0728V96.4682L1328.4 96.4682V95.0728ZM1234.21 95.7705V0.884766L1232.82 0.884766V95.7705H1234.21Z" fill="#5C6F90" mask="url(#path-27-inside-14_590_1210)"/>
<mask id="path-29-inside-15_590_1210" fill="white">
<path d="M1328.4 0.884766L1423.29 0.884766V95.7705L1328.4 95.7705V0.884766Z"/>
</mask>
<path d="M1423.29 0.884766L1423.98 0.884766V0.187077L1423.29 0.187077V0.884766ZM1423.29 95.7705V96.4682H1423.98V95.7705H1423.29ZM1328.4 1.58245L1423.29 1.58245V0.187077L1328.4 0.187077V1.58245ZM1422.59 0.884766V95.7705H1423.98V0.884766L1422.59 0.884766ZM1423.29 95.0728L1328.4 95.0728V96.4682L1423.29 96.4682V95.0728Z" fill="url(#paint1_linear_590_1210)" mask="url(#path-29-inside-15_590_1210)"/>
<defs>
<linearGradient id="paint0_linear_590_1210" x1="0" y1="48.3276" x2="94.8857" y2="48.3276" gradientUnits="userSpaceOnUse">
<stop offset="0.0292777" stop-color="white" stop-opacity="0"/>
<stop offset="0.995147" stop-color="#5C6F90"/>
</linearGradient>
<linearGradient id="paint1_linear_590_1210" x1="1328.4" y1="48.3276" x2="1423.29" y2="48.3276" gradientUnits="userSpaceOnUse">
<stop stop-color="#5C6F90"/>
<stop offset="1" stop-color="white" stop-opacity="0"/>
</linearGradient>
</defs>
</svg>
