<svg width="1424" height="95" viewBox="0 0 1424 95" fill="none" xmlns="http://www.w3.org/2000/svg">
<mask id="path-1-inside-1_590_1194" fill="white">
<path d="M0 0L94.8857 0L94.8857 94.8857L0 94.8857L0 0Z"/>
</mask>
<path d="M94.8857 94.8857V95.5834H95.5834V94.8857H94.8857ZM94.188 0L94.188 94.8857H95.5834L95.5834 0L94.188 0ZM94.8857 94.188L0 94.188L0 95.5834L94.8857 95.5834V94.188Z" fill="url(#paint0_linear_590_1194)" mask="url(#path-1-inside-1_590_1194)"/>
<mask id="path-3-inside-2_590_1194" fill="white">
<path d="M94.8857 0L189.771 0V94.8857L94.8857 94.8857L94.8857 0Z"/>
</mask>
<path d="M189.771 94.8857V95.5834H190.469V94.8857H189.771ZM94.8857 94.8857H94.1881V95.5834H94.8857V94.8857ZM189.074 0V94.8857H190.469V0L189.074 0ZM189.771 94.188L94.8857 94.188V95.5834L189.771 95.5834V94.188ZM95.5834 94.8857L95.5834 0L94.1881 0L94.1881 94.8857H95.5834Z" fill="url(#paint1_linear_590_1194)" mask="url(#path-3-inside-2_590_1194)"/>
<mask id="path-5-inside-3_590_1194" fill="white">
<path d="M189.771 0L284.657 0V94.8857L189.771 94.8857L189.771 0Z"/>
</mask>
<path d="M284.657 94.8857V95.5834H285.355V94.8857H284.657ZM189.771 94.8857H189.074V95.5834H189.771V94.8857ZM283.96 0V94.8857H285.355V0L283.96 0ZM284.657 94.188L189.771 94.188V95.5834L284.657 95.5834V94.188ZM190.469 94.8857L190.469 0L189.074 0L189.074 94.8857H190.469Z" fill="url(#paint2_linear_590_1194)" mask="url(#path-5-inside-3_590_1194)"/>
<mask id="path-7-inside-4_590_1194" fill="white">
<path d="M284.657 0L379.543 0V94.8857L284.657 94.8857V0Z"/>
</mask>
<path d="M379.543 94.8857V95.5834H380.241V94.8857H379.543ZM284.657 94.8857H283.96V95.5834H284.657V94.8857ZM378.845 0V94.8857H380.241V0L378.845 0ZM379.543 94.188L284.657 94.188V95.5834L379.543 95.5834V94.188ZM285.355 94.8857V0L283.96 0V94.8857H285.355Z" fill="url(#paint3_linear_590_1194)" mask="url(#path-7-inside-4_590_1194)"/>
<mask id="path-9-inside-5_590_1194" fill="white">
<path d="M379.543 0L474.429 0V94.8857L379.543 94.8857V0Z"/>
</mask>
<path d="M474.429 94.8857V95.5834H475.126V94.8857H474.429ZM379.543 94.8857H378.845V95.5834H379.543V94.8857ZM473.731 0V94.8857H475.126V0L473.731 0ZM474.429 94.188L379.543 94.188V95.5834L474.429 95.5834V94.188ZM380.241 94.8857V0L378.845 0V94.8857H380.241Z" fill="url(#paint4_linear_590_1194)" mask="url(#path-9-inside-5_590_1194)"/>
<mask id="path-11-inside-6_590_1194" fill="white">
<path d="M474.429 0L569.314 0V94.8857L474.429 94.8857V0Z"/>
</mask>
<path d="M569.314 94.8857V95.5834H570.012V94.8857H569.314ZM474.429 94.8857H473.731V95.5834H474.429V94.8857ZM568.617 0V94.8857H570.012V0L568.617 0ZM569.314 94.188L474.429 94.188V95.5834L569.314 95.5834V94.188ZM475.126 94.8857V0L473.731 0V94.8857H475.126Z" fill="url(#paint5_linear_590_1194)" mask="url(#path-11-inside-6_590_1194)"/>
<mask id="path-13-inside-7_590_1194" fill="white">
<path d="M569.314 0L664.2 0V94.8857L569.314 94.8857V0Z"/>
</mask>
<path d="M664.2 94.8857V95.5834H664.898V94.8857H664.2ZM569.314 94.8857H568.617V95.5834H569.314V94.8857ZM663.502 0V94.8857H664.898V0L663.502 0ZM664.2 94.188L569.314 94.188V95.5834L664.2 95.5834V94.188ZM570.012 94.8857V0L568.617 0V94.8857H570.012Z" fill="url(#paint6_linear_590_1194)" mask="url(#path-13-inside-7_590_1194)"/>
<mask id="path-15-inside-8_590_1194" fill="white">
<path d="M664.2 0L759.086 0V94.8857L664.2 94.8857V0Z"/>
</mask>
<path d="M759.086 94.8857V95.5834H759.784V94.8857H759.086ZM664.2 94.8857H663.503V95.5834H664.2V94.8857ZM758.388 0V94.8857H759.784V0L758.388 0ZM759.086 94.188L664.2 94.188V95.5834L759.086 95.5834V94.188ZM664.898 94.8857V0L663.503 0V94.8857H664.898Z" fill="url(#paint7_linear_590_1194)" mask="url(#path-15-inside-8_590_1194)"/>
<mask id="path-17-inside-9_590_1194" fill="white">
<path d="M759.086 0L853.972 0V94.8857L759.086 94.8857V0Z"/>
</mask>
<path d="M853.972 94.8857V95.5834H854.669V94.8857H853.972ZM759.086 94.8857H758.388V95.5834H759.086V94.8857ZM853.274 0V94.8857H854.669V0L853.274 0ZM853.972 94.188L759.086 94.188V95.5834L853.972 95.5834V94.188ZM759.784 94.8857V0L758.388 0V94.8857H759.784Z" fill="url(#paint8_linear_590_1194)" mask="url(#path-17-inside-9_590_1194)"/>
<mask id="path-19-inside-10_590_1194" fill="white">
<path d="M853.972 0L948.857 0V94.8857L853.972 94.8857V0Z"/>
</mask>
<path d="M948.857 94.8857V95.5834H949.555V94.8857H948.857ZM853.972 94.8857H853.274V95.5834H853.972V94.8857ZM948.16 0V94.8857H949.555V0L948.16 0ZM948.857 94.188L853.972 94.188V95.5834L948.857 95.5834V94.188ZM854.669 94.8857V0L853.274 0V94.8857H854.669Z" fill="url(#paint9_linear_590_1194)" mask="url(#path-19-inside-10_590_1194)"/>
<mask id="path-21-inside-11_590_1194" fill="white">
<path d="M948.857 0L1043.74 0V94.8857L948.857 94.8857V0Z"/>
</mask>
<path d="M1043.74 94.8857V95.5834H1044.44V94.8857H1043.74ZM948.857 94.8857H948.16V95.5834H948.857V94.8857ZM1043.05 0V94.8857H1044.44V0L1043.05 0ZM1043.74 94.188L948.857 94.188V95.5834L1043.74 95.5834V94.188ZM949.555 94.8857V0L948.16 0V94.8857H949.555Z" fill="url(#paint10_linear_590_1194)" mask="url(#path-21-inside-11_590_1194)"/>
<mask id="path-23-inside-12_590_1194" fill="white">
<path d="M1043.74 0L1138.63 0V94.8857L1043.74 94.8857V0Z"/>
</mask>
<path d="M1138.63 94.8857V95.5834H1139.33V94.8857H1138.63ZM1043.74 94.8857H1043.05V95.5834H1043.74V94.8857ZM1137.93 0V94.8857H1139.33V0L1137.93 0ZM1138.63 94.188L1043.74 94.188V95.5834L1138.63 95.5834V94.188ZM1044.44 94.8857V0L1043.05 0V94.8857H1044.44Z" fill="url(#paint11_linear_590_1194)" mask="url(#path-23-inside-12_590_1194)"/>
<mask id="path-25-inside-13_590_1194" fill="white">
<path d="M1138.63 0L1233.51 0V94.8857L1138.63 94.8857V0Z"/>
</mask>
<path d="M1233.51 94.8857V95.5834H1234.21V94.8857H1233.51ZM1138.63 94.8857H1137.93V95.5834H1138.63V94.8857ZM1232.82 0V94.8857H1234.21V0L1232.82 0ZM1233.51 94.188L1138.63 94.188V95.5834L1233.51 95.5834V94.188ZM1139.33 94.8857V0L1137.93 0V94.8857H1139.33Z" fill="url(#paint12_linear_590_1194)" mask="url(#path-25-inside-13_590_1194)"/>
<mask id="path-27-inside-14_590_1194" fill="white">
<path d="M1233.51 0L1328.4 0V94.8857L1233.51 94.8857V0Z"/>
</mask>
<path d="M1328.4 94.8857V95.5834H1329.1V94.8857H1328.4ZM1233.51 94.8857H1232.82V95.5834H1233.51V94.8857ZM1327.7 0V94.8857H1329.1V0L1327.7 0ZM1328.4 94.188L1233.51 94.188V95.5834L1328.4 95.5834V94.188ZM1234.21 94.8857V0L1232.82 0V94.8857H1234.21Z" fill="url(#paint13_linear_590_1194)" mask="url(#path-27-inside-14_590_1194)"/>
<mask id="path-29-inside-15_590_1194" fill="white">
<path d="M1328.4 0L1423.29 0V94.8857L1328.4 94.8857V0Z"/>
</mask>
<path d="M1328.4 94.8857H1327.7V95.5834H1328.4V94.8857ZM1423.29 94.188L1328.4 94.188V95.5834L1423.29 95.5834V94.188ZM1329.1 94.8857V0L1327.7 0V94.8857H1329.1Z" fill="url(#paint14_linear_590_1194)" mask="url(#path-29-inside-15_590_1194)"/>
<defs>
<linearGradient id="paint0_linear_590_1194" x1="0" y1="0" x2="94.8857" y2="94.8857" gradientUnits="userSpaceOnUse">
<stop offset="0.0292777" stop-color="white" stop-opacity="0"/>
<stop offset="0.995147" stop-color="#5C6F90"/>
</linearGradient>
<linearGradient id="paint1_linear_590_1194" x1="142.329" y1="0" x2="142.329" y2="94.8857" gradientUnits="userSpaceOnUse">
<stop offset="0.0292777" stop-color="white" stop-opacity="0"/>
<stop offset="0.995147" stop-color="#5C6F90"/>
</linearGradient>
<linearGradient id="paint2_linear_590_1194" x1="237.214" y1="0" x2="237.214" y2="94.8857" gradientUnits="userSpaceOnUse">
<stop offset="0.0292777" stop-color="white" stop-opacity="0"/>
<stop offset="0.995147" stop-color="#5C6F90"/>
</linearGradient>
<linearGradient id="paint3_linear_590_1194" x1="332.1" y1="0" x2="332.1" y2="94.8857" gradientUnits="userSpaceOnUse">
<stop offset="0.0292777" stop-color="white" stop-opacity="0"/>
<stop offset="0.995147" stop-color="#5C6F90"/>
</linearGradient>
<linearGradient id="paint4_linear_590_1194" x1="426.986" y1="0" x2="426.986" y2="94.8857" gradientUnits="userSpaceOnUse">
<stop offset="0.0292777" stop-color="white" stop-opacity="0"/>
<stop offset="0.995147" stop-color="#5C6F90"/>
</linearGradient>
<linearGradient id="paint5_linear_590_1194" x1="521.872" y1="0" x2="521.872" y2="94.8857" gradientUnits="userSpaceOnUse">
<stop offset="0.0292777" stop-color="white" stop-opacity="0"/>
<stop offset="0.995147" stop-color="#5C6F90"/>
</linearGradient>
<linearGradient id="paint6_linear_590_1194" x1="616.757" y1="0" x2="616.757" y2="94.8857" gradientUnits="userSpaceOnUse">
<stop offset="0.0292777" stop-color="white" stop-opacity="0"/>
<stop offset="0.995147" stop-color="#5C6F90"/>
</linearGradient>
<linearGradient id="paint7_linear_590_1194" x1="711.643" y1="0" x2="711.643" y2="94.8857" gradientUnits="userSpaceOnUse">
<stop offset="0.0292777" stop-color="white" stop-opacity="0"/>
<stop offset="0.995147" stop-color="#5C6F90"/>
</linearGradient>
<linearGradient id="paint8_linear_590_1194" x1="806.529" y1="0" x2="806.529" y2="94.8857" gradientUnits="userSpaceOnUse">
<stop offset="0.0292777" stop-color="white" stop-opacity="0"/>
<stop offset="0.995147" stop-color="#5C6F90"/>
</linearGradient>
<linearGradient id="paint9_linear_590_1194" x1="901.415" y1="0" x2="901.415" y2="94.8857" gradientUnits="userSpaceOnUse">
<stop offset="0.0292777" stop-color="white" stop-opacity="0"/>
<stop offset="0.995147" stop-color="#5C6F90"/>
</linearGradient>
<linearGradient id="paint10_linear_590_1194" x1="996.3" y1="0" x2="996.3" y2="94.8857" gradientUnits="userSpaceOnUse">
<stop offset="0.0292777" stop-color="white" stop-opacity="0"/>
<stop offset="0.995147" stop-color="#5C6F90"/>
</linearGradient>
<linearGradient id="paint11_linear_590_1194" x1="1091.19" y1="0" x2="1091.19" y2="94.8857" gradientUnits="userSpaceOnUse">
<stop offset="0.0292777" stop-color="white" stop-opacity="0"/>
<stop offset="0.995147" stop-color="#5C6F90"/>
</linearGradient>
<linearGradient id="paint12_linear_590_1194" x1="1186.07" y1="0" x2="1186.07" y2="94.8857" gradientUnits="userSpaceOnUse">
<stop offset="0.0292777" stop-color="white" stop-opacity="0"/>
<stop offset="0.995147" stop-color="#5C6F90"/>
</linearGradient>
<linearGradient id="paint13_linear_590_1194" x1="1280.96" y1="0" x2="1280.96" y2="94.8857" gradientUnits="userSpaceOnUse">
<stop offset="0.0292777" stop-color="white" stop-opacity="0"/>
<stop offset="0.995147" stop-color="#5C6F90"/>
</linearGradient>
<linearGradient id="paint14_linear_590_1194" x1="1423.29" y1="0" x2="1328.4" y2="94.8857" gradientUnits="userSpaceOnUse">
<stop stop-color="white" stop-opacity="0"/>
<stop offset="1" stop-color="#5C6F90"/>
</linearGradient>
</defs>
</svg>
