<?xml version="1.0" encoding="UTF-8"?>
<svg id="Capa_2" data-name="Capa 2" xmlns="http://www.w3.org/2000/svg" viewBox="0 0 57.09 8.5">
  <defs>
    <style>
      .cls-1 {
        fill: #fff;
        stroke-width: 0px;
      }
    </style>
  </defs>
  <g id="Capa_1-2" data-name="Capa 1">
    <g>
      <path class="cls-1" d="M0,8.44V.06h3.4c1.71,0,2.57.75,2.57,2.24,0,1.63-1.17,2.62-3.51,2.98l-.22-.91c1.72-.25,2.58-.93,2.58-2.02,0-.93-.5-1.39-1.51-1.39H1.08v7.48H0Z"/>
      <path class="cls-1" d="M7.4,8.44V.06h3.57c1.59,0,2.39.67,2.39,2.01,0,1.09-.78,1.9-2.34,2.42l2.88,3.95h-1.43l-2.67-3.77v-.71c1.6-.25,2.4-.87,2.4-1.85,0-.77-.45-1.16-1.34-1.16h-2.39v7.48h-1.08Z"/>
      <path class="cls-1" d="M14.75,4.26c0-2.84,1.4-4.26,4.21-4.26s4.14,1.42,4.14,4.26-1.38,4.24-4.14,4.24-4.21-1.41-4.21-4.24ZM18.96,7.62c2,0,3-1.13,3-3.39s-1-3.35-3-3.35-3.06,1.12-3.06,3.35,1.02,3.39,3.06,3.39Z"/>
      <path class="cls-1" d="M26.79.06v5.96c0,1.61-.95,2.41-2.84,2.41v-.88c1.17,0,1.76-.51,1.76-1.54V.06h1.08Z"/>
      <path class="cls-1" d="M34.32.06v.88h-4.39v2.81h4.19v.88h-4.19v2.93h4.48v.88h-5.57V.06h5.48Z"/>
      <path class="cls-1" d="M42.38,8.14c-.72.23-1.5.35-2.34.35-2.93,0-4.39-1.46-4.39-4.37,0-2.75,1.46-4.13,4.39-4.13.84,0,1.62.12,2.34.35v.94c-.72-.27-1.46-.41-2.23-.41-2.29,0-3.43,1.08-3.43,3.25,0,2.32,1.14,3.49,3.43,3.49.76,0,1.5-.14,2.23-.41v.94Z"/>
      <path class="cls-1" d="M49.82.06v.88h-2.64v7.5h-1.08V.94h-2.64V.06h6.36Z"/>
      <path class="cls-1" d="M50.99,8.14v-1c.88.31,1.83.47,2.85.47,1.44,0,2.16-.53,2.16-1.58,0-.9-.53-1.35-1.59-1.35h-1.08c-1.75,0-2.63-.76-2.63-2.29,0-1.6,1.12-2.4,3.37-2.4.98,0,1.88.12,2.72.35v1c-.84-.31-1.75-.47-2.72-.47-1.52,0-2.29.51-2.29,1.52,0,.9.52,1.35,1.55,1.35h1.08c1.79,0,2.68.76,2.68,2.29,0,1.64-1.08,2.46-3.25,2.46-1.02,0-1.97-.12-2.85-.35Z"/>
    </g>
  </g>
</svg>